
  <svg xmlns="http://www.w3.org/2000/svg" width="1080" height="1350" viewBox="0 0 1080 1350">
    <rect width="1080" height="1350" fill="#0F2747"/>
    <circle cx="950" cy="80" r="260" fill="#2563EB" opacity="0.2"/>
    <circle cx="130" cy="1200" r="240" fill="#22C55E" opacity="0.1"/>
    <text x="76" y="100" text-anchor="start" fill="#22C55E" font-family="Noto Sans TC, Inter, Arial, sans-serif" font-size="38px" font-weight="900">LLF</text>
    <text x="1004" y="100" text-anchor="end" fill="#FFFFFF" font-family="Noto Sans TC, Inter, Arial, sans-serif" font-size="32px" font-weight="800">01</text>
    <rect x="76" y="180" width="928" height="760" rx="32" fill="#FFFFFF" fill-opacity="0.08" stroke="#FFFFFF" stroke-opacity="0.16"/>
    
  <g transform="translate(445 300) scale(1.3)">
    <path d="M0 0h150l-48 54v44l-27 18V54z" fill="#FFFFFF"/>
    <path d="M112 22 148 0l-16 42-14-11-34 42-18-15 34-42-14-11z" fill="#22C55E"/>
  </g>
    <text x="540" y="560" text-anchor="middle" fill="#FFFFFF" font-family="Noto Sans TC, Inter, Arial, sans-serif" font-size="56px" font-weight="900">把社群流量變成預約名單</text>
    <text x="540" y="760" text-anchor="middle" fill="#CBD5E1" font-family="Noto Sans TC, Inter, Arial, sans-serif" font-size="26px" font-weight="600">網站 × LINE × 表單 × 追蹤</text>
    <path d="M220 835h640" stroke="#22C55E" stroke-width="8" stroke-linecap="round"/>
    <text x="76" y="1110" text-anchor="start" fill="#FFFFFF" font-family="Noto Sans TC, Inter, Arial, sans-serif" font-size="28px" font-weight="800">Local Lead Funnel｜預約成交系統</text>
    <text x="76" y="1164" text-anchor="start" fill="#CBD5E1" font-family="Noto Sans TC, Inter, Arial, sans-serif" font-size="25px" font-weight="600">幫本地店家把流量變成預約</text>
    <rect x="76" y="1210" width="330" height="64" rx="14" fill="#22C55E"/>
    <text x="241" y="1252" text-anchor="middle" fill="#0F2747" font-family="Noto Sans TC, Inter, Arial, sans-serif" font-size="22px" font-weight="900">免費診斷你的預約流程</text>
  </svg>