
  <svg xmlns="http://www.w3.org/2000/svg" width="1200" height="630" viewBox="0 0 1200 630">
    <rect width="1200" height="630" fill="#F8FAFC"/>
    <rect width="740" height="630" fill="#0F2747"/>
    <circle cx="1050" cy="-20" r="290" fill="#2563EB" opacity="0.16"/>
    <circle cx="1090" cy="585" r="220" fill="#22C55E" opacity="0.12"/>
    <text x="76" y="100" text-anchor="start" fill="#22C55E" font-family="Noto Sans TC, Inter, Arial, sans-serif" font-size="30px" font-weight="900">Local Lead Funnel</text>
    <text x="76" y="230" text-anchor="start" fill="#FFFFFF" font-family="Noto Sans TC, Inter, Arial, sans-serif" font-size="58px" font-weight="900">幫本地店家</text><text x="76" y="308" text-anchor="start" fill="#FFFFFF" font-family="Noto Sans TC, Inter, Arial, sans-serif" font-size="58px" font-weight="900">把流量變成預約</text>
    <text x="80" y="390" text-anchor="start" fill="#CBD5E1" font-family="Noto Sans TC, Inter, Arial, sans-serif" font-size="26px" font-weight="600">一頁式網站 × LINE × 表單 × 追蹤</text>
    <text x="80" y="535" text-anchor="start" fill="#FFFFFF" font-family="Noto Sans TC, Inter, Arial, sans-serif" font-size="24px" font-weight="700">預約成交系統</text>
    <g transform="translate(830 130)">
      <rect width="280" height="330" rx="28" fill="#FFFFFF" stroke="#0F2747" stroke-opacity="0.12"/>
      <circle cx="140" cy="80" r="52" fill="#2563EB" opacity="0.12"/>
      <path d="M74 62h132l-43 49v39l-24 15v-54z" fill="#0F2747"/>
      <path d="m178 48 44-28-19 52-16-12-34 42-19-16 34-42-16-12z" fill="#22C55E"/>
      <text x="70" y="230" text-anchor="start" fill="#0F172A" font-family="Noto Sans TC, Inter, Arial, sans-serif" font-size="20px" font-weight="700">流量</text>
      <text x="126" y="230" text-anchor="start" fill="#0F172A" font-family="Noto Sans TC, Inter, Arial, sans-serif" font-size="20px" font-weight="700">名單</text>
      <text x="182" y="230" text-anchor="start" fill="#2563EB" font-family="Noto Sans TC, Inter, Arial, sans-serif" font-size="20px" font-weight="800">預約</text>
      <path d="M74 260h132" stroke="#CBD5E1" stroke-width="4" stroke-linecap="round"/>
      <path d="M74 285h96" stroke="#22C55E" stroke-width="8" stroke-linecap="round"/>
    </g>
  </svg>